<svg width="134" height="60" viewBox="0 0 134 60" fill="none" xmlns="http://www.w3.org/2000/svg">
<g clip-path="url(#clip0_17450_402)">
<path d="M24.181 51.1615C24.2535 51.1519 24.3262 51.1441 24.3991 51.1382C24.5942 51.1223 24.899 51.103 25.0912 51.1326C27.4629 51.4979 29.1588 52.9643 29.3273 55.4192C29.4056 56.5933 29.0154 57.7508 28.2413 58.6399C27.3862 59.6052 26.5674 59.8266 25.3372 59.9056C24.7789 60.0259 23.455 59.9462 22.9282 59.7288C20.093 58.5585 19.4564 54.5475 21.6755 52.5045C22.4461 51.7951 23.2266 51.5409 24.181 51.1615ZM25.207 58.4869C26.5167 57.9979 26.6098 57.8272 27.3612 56.644C27.3341 55.4761 27.4185 54.3558 26.4853 53.4637C26.041 53.039 25.4286 52.8549 24.8195 52.8792C24.663 52.8856 24.5069 52.8983 24.3515 52.917C22.4526 53.3393 22.1805 54.9284 22.4338 56.5946C22.6091 57.7482 24.1234 58.8361 25.207 58.4869Z" fill="#F2F2F2"/>
<path d="M77.5342 35.6617C78.9455 35.628 80.4772 35.5064 81.8774 35.6938C82.7437 35.8098 83.5118 36.1099 84.0516 36.8217C85.9425 39.314 82.9694 40.9858 83.1971 41.7026C83.3738 42.2576 85.1024 44.4276 85.0501 44.7866C84.7491 44.7863 84.1897 44.7712 83.9103 44.7983C83.5674 44.8314 83.6113 44.8803 83.1428 44.883C82.1456 44.1998 81.9493 43.1061 81.2434 42.1604C81.0817 41.9444 80.8141 41.6985 80.6133 41.5118L79.5258 41.4757C79.5932 42.5442 79.4709 43.7493 79.5762 44.8066C78.935 44.7531 78.2434 44.8268 77.5688 44.7762C77.4216 44.282 77.4039 36.2523 77.5342 35.6617ZM79.5154 39.8761C80.0807 39.8882 81.719 40.0221 82.0966 39.6736C82.5834 39.0446 82.4957 38.7119 82.4604 37.9166L82.1391 37.4235C81.2283 37.1716 80.4124 37.2956 79.4781 37.2621C79.5311 38.1025 79.5814 39.0364 79.5154 39.8761Z" fill="#F2F2F2"/>
<path d="M39.3977 35.6612C40.947 35.6435 43.7669 35.313 44.9447 36.4744C46.0177 37.5326 45.9718 39.759 44.8653 40.8077C43.9043 41.7185 42.5439 41.5208 41.3352 41.5074C41.1627 41.4886 41.1306 41.493 40.9591 41.5224C40.8337 41.7186 40.9402 42.6919 40.9474 42.9947C40.9629 43.6357 40.9294 44.1666 40.8407 44.8015C40.1498 44.8096 39.4586 44.8044 38.7679 44.7859C38.6726 44.2323 38.6658 35.9874 38.7303 35.7765C38.8984 35.6606 39.1832 35.6724 39.3977 35.6612ZM40.8282 39.892C41.3773 39.9024 42.8866 39.9973 43.3155 39.7459C43.4671 39.5416 43.6231 39.336 43.7662 39.1261C43.8078 38.6214 43.899 38.1186 43.5303 37.7132C42.9563 37.0821 41.6691 37.2823 40.8882 37.2749C40.9546 38.1395 41.0173 39.0362 40.8282 39.892Z" fill="#F2F2F2"/>
<path d="M51.7545 35.6259C53.5857 35.6941 56.4373 35.1683 57.8457 36.5001C58.9106 37.507 58.8703 39.7782 57.8517 40.8085C57.0772 41.5919 56.0068 41.5036 54.9989 41.5057C54.4871 41.5207 53.975 41.5206 53.4632 41.5054C53.561 42.2529 53.4745 44.02 53.4485 44.8456C53.1048 44.8172 52.7291 44.7826 52.3843 44.7831C52.1745 44.7835 52.0927 44.9132 51.8613 44.8654C51.6275 44.4867 51.7349 36.7143 51.7545 35.6259ZM53.4564 39.8994C53.9851 39.9094 56.0234 40.0035 56.3209 39.6842C56.9126 38.6508 56.9611 38.1788 55.9627 37.348C55.0818 37.2289 54.2824 37.3252 53.469 37.2473C53.5281 38.0098 53.4888 39.1199 53.4564 39.8994Z" fill="#F2F2F2"/>
<path d="M27.7493 35.6499C28.3796 35.6393 28.9499 35.6222 29.5806 35.6759C29.9921 36.3949 30.7622 38.4859 31.0725 39.3177L33.113 44.7937C32.203 44.8162 31.8979 44.8878 31.0302 44.5682C30.1728 43.2609 31.2225 42.8435 29.1652 42.8916C28.5207 42.8818 27.7091 42.8357 27.0845 42.9526C26.4401 43.0731 26.5199 44.0271 26.1219 44.6637C25.8477 44.846 24.442 44.9245 24.21 44.6714C24.5156 43.3259 25.3893 41.4876 25.8871 40.129C26.2628 39.1037 27.1604 36.4975 27.7493 35.6499ZM27.483 41.4685C27.9841 41.3815 28.4277 41.3762 28.9362 41.3786L29.8122 41.3691C29.4721 40.5302 29.0705 38.8772 28.4117 38.2264C28.3097 39.1537 27.7417 40.4179 27.483 41.4685Z" fill="#F2F2F2"/>
<path d="M67.1831 35.6703C67.5207 35.653 67.9107 35.6569 68.2516 35.6533C68.7351 36.3972 69.2579 37.9465 69.5837 38.8241C70.1444 40.3353 71.5191 43.1682 71.7285 44.6774C71.5309 44.863 70.3231 44.7974 70.0031 44.7976C69.1257 43.8735 69.5634 43.3946 69.2533 43.0838C68.8319 42.8118 67.9637 42.8878 67.4435 42.8969C65.117 42.8154 65.8765 42.694 64.862 44.6353C64.8059 44.729 64.6915 44.8099 64.5774 44.7951C64.2968 44.7587 62.9686 44.7978 62.8396 44.7004C63.6441 42.8123 64.417 40.7209 65.166 38.8055C65.5146 37.9144 66.112 36.5674 66.3567 35.7067L67.1831 35.6703ZM66.1578 41.4428C66.572 41.4156 67.0267 41.3767 67.4376 41.3726L68.5663 41.3854C68.2064 40.6456 67.9093 38.7161 67.2099 38.3294C67.1438 38.9501 66.4038 40.6668 66.1578 41.4428Z" fill="#F2F2F2"/>
<path d="M114.081 39.4387C115.004 39.4002 116.017 39.3883 116.941 39.4058C122.427 39.51 128.006 39.2714 133.483 39.4256C133.493 39.9025 133.618 41.0672 133.46 41.4538L133.297 41.5064L113.804 41.4821C113.875 40.9651 113.723 39.8485 113.899 39.4947L114.081 39.4387Z" fill="#F2F2F2"/>
<path d="M91.0376 35.659C92.568 35.616 95.602 35.5659 97.0781 35.6816C97.0532 36.1188 97.0859 36.9225 97.1187 37.3482C95.8807 37.2186 93.9571 37.2708 92.6786 37.2707C92.7466 38.0938 92.6354 38.7247 92.6838 39.31C93.1013 39.6057 95.8127 39.1452 96.3073 39.4644C96.4029 39.6923 96.289 40.5046 96.3564 40.8784L96.2753 40.9845C95.8081 41.1032 93.4867 40.9579 92.8186 40.944C92.7152 41.0869 92.7394 41.233 92.7381 41.4172C92.7525 41.7424 92.6721 42.6152 92.6596 43.0135C92.9966 43.1651 96.4984 43.0986 97.2201 43.1366C97.082 43.618 97.0735 44.3201 97.116 44.8197C95.4286 44.7565 92.2487 44.6943 90.6411 44.8182C90.7242 44.064 90.6791 42.4163 90.6778 41.6143L90.6621 35.7925C90.7968 35.6508 90.7949 35.693 91.0376 35.659Z" fill="#F2F2F2"/>
<path d="M121.571 51.2322C123.224 51.1912 124.906 51.3151 126.548 51.2357L126.922 51.6901C126.858 52.1286 126.807 52.491 126.777 52.9325C126.018 52.9972 123.389 52.9765 122.632 52.9124C122.69 53.6222 122.726 54.2275 122.619 54.9325C123.596 54.8947 125.007 54.9099 125.976 54.9497C126.012 55.3992 125.998 55.9375 125.997 56.3955C124.59 56.4338 124.001 56.3702 122.681 56.2934C122.605 56.4211 122.664 57.0508 122.673 57.2491C122.685 57.656 122.656 57.9792 122.624 58.3847C123.924 58.3377 125.231 58.3091 126.531 58.279C126.924 58.2699 126.84 59.4046 126.773 59.6601C126.653 59.7743 126.582 59.8509 126.403 59.849C124.543 59.8293 122.645 59.9104 120.792 59.8938C120.594 57.2508 120.887 53.9923 120.741 51.2843L121.571 51.2322Z" fill="#F2F2F2"/>
<path d="M10.5323 51.099C12.1012 51.0306 16.8876 53.6366 12.6591 54.0747C12.0595 53.0745 11.2 52.6999 10.0532 52.954C9.43363 53.0875 8.89527 53.4661 8.56184 54.003C7.65309 55.4699 7.97409 57.3026 9.52843 58.1675C9.92991 58.391 10.28 58.4437 10.7251 58.5439C11.7291 58.1182 11.8355 58.4278 12.698 57.4923C13.6326 57.2945 13.7579 57.3827 14.4209 58.0246C13.803 59.0752 12.9738 59.856 11.6614 59.89C10.0361 59.9321 8.82703 60.1586 7.52491 58.9682C6.78091 58.288 6.38838 57.5721 6.33719 56.5293C6.29814 55.0328 6.2166 53.9992 7.21373 52.827C7.93005 51.9848 9.47897 51.167 10.5323 51.099Z" fill="#F2F2F2"/>
<path d="M78.8742 57.4551C79.4735 57.4302 81.0949 57.4273 80.3261 58.6057C79.6162 59.6941 78.2258 59.9589 77.0376 59.9128C75.9645 59.8712 75.0727 60.0126 74.1358 59.3137C72.2311 58.2408 72.0989 54.9629 73.0575 53.274C73.6522 52.2268 75.2206 51.4001 76.3924 51.1787C77.3026 51.0066 78.6301 51.5146 79.4133 52.0169C79.7771 52.2475 80.949 53.1374 80.6146 53.5987C79.6391 54.0063 79.0155 54.3576 78.3422 53.4905C77.6742 52.6305 76.3676 52.7052 75.4718 53.2962L75.2985 53.1422C74.8974 53.1961 74.5938 53.578 74.478 53.9508L74.546 53.9979L74.654 53.9715L74.7011 54.0662C74.4852 54.5093 74.3262 54.957 74.2679 55.4315C74.0317 57.3559 76.2119 59.2874 78.0517 58.1935C78.481 57.9384 78.5935 57.8671 78.8742 57.4551Z" fill="#F2F2F2"/>
<path d="M103.417 35.6573C104.058 35.6378 104.773 35.6507 105.42 35.6504C105.382 36.3384 105.42 37.3375 105.428 38.0514C105.449 39.7847 105.479 41.4087 105.394 43.1438C106.707 43.0651 108.178 43.0993 109.504 43.105C109.518 43.5141 109.606 44.5343 109.384 44.8071C108.384 44.7855 104.12 44.7078 103.374 44.8649C103.308 44.2924 103.345 35.8068 103.417 35.6573ZM109.202 44.7304C109.349 44.5694 109.328 44.6366 109.343 44.4623C109.2 44.3281 109.268 44.3704 109.056 44.3182C109.005 44.4194 108.944 44.5174 108.937 44.6285L109.202 44.7304Z" fill="#F2F2F2"/>
<path d="M109.056 44.3184C109.268 44.3705 109.2 44.3283 109.343 44.4624C109.328 44.6367 109.349 44.5696 109.202 44.7305L108.937 44.6286C108.944 44.5175 109.005 44.4195 109.056 44.3184Z" fill="#F2F2F2"/>
<path d="M89.6269 51.2386C89.8624 51.2304 90.0986 51.2252 90.3342 51.2231C91.1422 51.2162 91.9581 51.2221 92.7629 51.2671C93.4152 51.3036 93.289 51.4866 93.3302 51.974C93.4885 53.8341 91.5662 52.4894 90.8726 53.0517C90.9577 53.9458 90.9204 55.155 90.9224 56.074C90.925 57.2407 90.9557 58.4984 90.9132 59.6575C90.7595 59.8481 90.6744 59.8373 90.4238 59.9392C90.2556 59.9134 89.0773 59.8679 89.0269 59.7471C88.6644 58.8855 89.1604 53.4468 88.7835 52.9893C88.5113 52.9317 86.9599 52.9007 86.5039 52.8679C86.4895 52.478 86.3986 51.63 86.6335 51.3601C87.1294 51.2221 88.9889 51.2433 89.6269 51.2386Z" fill="#F2F2F2"/>
<path d="M35.8799 51.2712C36.3415 51.296 36.6954 51.2192 37.1879 51.2956C37.8072 51.7248 37.1533 57.7779 37.5797 58.3946C37.9494 58.2883 41.0278 58.3061 41.6239 58.2994C41.643 58.9179 41.6476 59.281 41.5884 59.9063C41.5722 59.907 41.5559 59.9078 41.5396 59.9086C39.6883 59.7907 37.8295 59.9083 35.9787 59.8515C35.9403 59.8139 35.9082 59.7825 35.8825 59.7573C35.7375 59.2314 35.7196 51.7391 35.8799 51.2712Z" fill="#F2F2F2"/>
<path d="M99.5258 58.5903C99.3877 56.3986 99.5958 54.0755 99.4669 51.8716C99.4237 51.1414 101.135 51.1289 101.392 51.3543C101.619 52.2229 101.501 57.7366 101.449 58.9098C101.375 59.0046 101.359 59.2415 101.337 59.3808L101.282 59.4203L101.18 59.2726C101.04 59.3533 100.878 59.4478 100.69 59.5563C100.37 59.4479 99.9406 59.3782 99.6134 59.3376C99.6121 59.0242 99.6193 58.898 99.5258 58.5903Z" fill="#F2F2F2"/>
<path d="M99.5258 58.5908C99.6193 58.8985 99.6121 59.0247 99.6134 59.3382C99.9406 59.3787 100.37 59.4484 100.69 59.5569C100.878 59.4483 101.04 59.3538 101.18 59.2732L101.282 59.4209L101.337 59.3814C101.359 59.242 101.375 59.0052 101.449 58.9103C101.464 59.1373 101.433 59.7199 101.426 59.9726C101.003 59.9107 100.674 59.8911 100.247 59.8963C99.3354 59.9073 99.4904 59.2102 99.5258 58.5908Z" fill="#F2F2F2"/>
<path d="M74.7011 54.0666L74.654 53.9719L74.5461 53.9983L74.478 53.9512C74.5938 53.5784 74.8974 53.1965 75.2985 53.1426L75.4719 53.2966C75.1277 53.5869 74.9949 53.7249 74.7011 54.0666Z" fill="#F2F2F2"/>
<path d="M0 0H3.36633C3.85113 1.00138 5.16034 2.66519 5.8585 3.76605C7.65796 6.65472 9.50582 9.51323 11.4013 12.3403C11.7949 12.935 12.1387 13.5683 12.521 14.1709C12.7804 14.5799 13.1034 14.9511 13.3788 15.344C14.1047 13.7368 15.2553 12.3617 16.1853 10.8887C18.5203 7.19036 21.0851 3.62929 23.5067 0H26.405C26.6205 1.03019 26.55 2.59702 26.5465 3.68159L26.5345 8.83088C26.5788 15.2365 26.5754 21.6425 26.5243 28.0481C25.9977 28.2811 21.4185 28.1579 20.5687 28.1408L20.606 20.7415C20.5985 18.9797 20.5016 17.0728 20.6365 15.3345C18.3274 19.0817 15.609 22.5756 13.3367 26.3062C12.4215 25.3048 12.2579 24.8881 11.5214 23.8984C9.89559 21.7136 8.51168 19.441 6.91461 17.2364C6.457 16.6048 6.16028 16.0263 5.65928 15.3894C5.92765 18.8354 5.59067 22.4756 5.73191 25.9381C5.76172 26.669 5.66469 27.448 5.6962 28.176L0 28.1627V0Z" fill="#F2F2F2"/>
<path d="M92.4227 0H92.5948C92.725 0.764906 99.758 7.3686 100.643 8.71322C101.693 10.3068 105.006 12.6655 105.973 14.465L106.073 14.4759C106.568 13.5696 105.744 2.08999 106.324 0H111.972C111.98 0.041861 111.987 0.0837792 111.995 0.125752C112.165 1.08929 112.126 2.81192 112.126 3.82358L112.121 9.52775C112.16 13.9749 112.158 18.4222 112.117 22.8693C112.102 24.5012 112.099 26.1462 112.089 27.779C112.088 27.9865 112.046 28.2378 111.923 28.4112L111.842 28.4152C111.38 27.7127 110.871 27.4983 110.291 26.9668C108.508 25.332 106.84 23.5512 105.075 21.9C102.749 19.725 100.362 17.6232 98.1602 15.321C98.3087 19.5862 98.1726 24.0157 98.2132 28.3029C96.3962 28.4631 94.1553 28.3198 92.299 28.3622C92.2015 27.2633 92.2859 24.927 92.2898 23.7025L92.2925 14.8167L92.2833 5.03118C92.2853 3.92446 92.2369 0.980645 92.4227 0Z" fill="#F2F2F2"/>
<path d="M123.473 0H126.273C126.866 0.462513 127.437 0.358393 128.113 0.565358C130.715 1.36199 131.929 2.35028 133.581 4.35887C133.236 4.93233 130.258 8.79446 129.869 8.90098C129.485 8.76971 128.999 8.05381 128.68 7.74306C126.971 6.07665 124.962 5.34485 122.682 6.50575C119.83 7.95766 119.085 11.4329 118.965 14.3618C118.937 15.0504 119.172 15.844 119.246 16.5266C119.396 17.5561 119.614 18.3751 120.073 19.3022C120.636 20.4399 121.95 22.0051 123.195 22.3823C124.239 22.6987 126.329 22.7165 127.313 22.1736C127.639 21.9942 127.931 21.7879 128.291 21.6502C128.475 20.6626 128.361 18.9739 128.38 17.9061C127.646 17.8986 124.993 17.8498 124.384 17.9372C124.201 16.8665 124.322 14.504 124.346 13.3295L134 13.3402V24.2655C133.676 24.4607 133.562 24.8386 133.295 25.096C130.58 27.6977 127.029 28.6719 123.298 28.2848C109.752 26.8797 109.239 3.78786 121.753 0.527527C122.336 0.375808 122.968 0.40436 123.473 0ZM133.799 24.0733C133.739 23.0702 133.842 22.0857 133.848 21.0842C133.863 19.1147 133.82 17.1455 133.863 15.176C133.873 14.6983 133.908 14.1292 133.839 13.6635C133.728 13.6041 133.677 13.5712 133.556 13.538C133.698 14.2184 133.658 15.5971 133.656 16.3376L133.649 20.5291C133.648 21.5323 133.751 23.2596 133.698 24.1508L133.743 24.1635L133.799 24.0733Z" fill="#F2F2F2"/>
<path d="M133.556 13.5381C133.677 13.5713 133.728 13.6042 133.839 13.6636C133.908 14.1293 133.873 14.6984 133.863 15.1761C133.82 17.1456 133.863 19.1148 133.848 21.0843C133.842 22.0858 133.739 23.0703 133.799 24.0734L133.743 24.1636L133.698 24.1509C133.751 23.2597 133.648 21.5324 133.649 20.5292L133.657 16.3377C133.658 15.5972 133.698 14.2185 133.556 13.5381Z" fill="#F2F2F2"/>
<path d="M78.7597 0H79.5933C79.6725 0.375709 80.5715 2.30893 80.7724 2.79818L83.2796 9.08052L89.1703 23.3949C89.5995 24.4478 89.9247 25.5534 90.3833 26.6008C90.6797 27.2792 90.6372 27.568 91.1744 28.1223C89.7624 28.3214 85.8641 28.2479 84.3357 28.2039C84.2212 27.542 83.8829 26.8857 83.6264 26.2533L82.4251 23.2775C81.53 21.0165 80.6565 18.7472 79.751 16.4911C79.6273 16.1831 79.5109 15.8923 79.363 15.5939C79.3015 15.5952 79.1824 15.584 79.1576 15.6369C77.7318 18.7011 76.5881 21.9356 75.3352 25.0798C74.974 25.9854 74.2143 27.222 74.1299 28.1544C72.4988 28.3698 69.137 28.1552 67.3481 28.2015C67.9279 27.3876 68.378 25.7332 68.7922 24.7928C69.5211 23.1392 70.1669 21.4433 70.8467 19.7825L76.8145 5.10659C77.3517 3.7576 78.5863 1.32811 78.7597 0Z" fill="#F2F2F2"/>
<path d="M38.4898 0H39.2771C39.3537 0.63653 40.9224 4.1118 41.2585 4.95077L49.2622 24.5572C49.6781 25.5564 49.9954 26.6259 50.3714 27.6431C50.4128 27.7548 50.6861 28.0033 50.7871 28.0977C49.3748 28.294 45.3665 28.3372 43.9583 28.1374C43.6955 27.0505 42.9768 25.9741 42.6461 24.9438C41.6144 21.7295 39.8867 18.4674 38.9907 15.2423C38.2529 16.4079 37.818 17.7628 37.3064 19.0408C36.5963 20.8145 35.8815 22.6012 35.2304 24.3973C34.8964 25.3188 33.838 27.3404 33.652 28.1986C31.7835 28.0933 29.0922 28.179 27.1086 28.1381C27.7158 26.921 28.334 24.9386 28.8847 23.6248L34.6851 9.42182L37.4782 2.58583C37.7465 1.91984 38.3678 0.622153 38.4898 0Z" fill="#F2F2F2"/>
<path d="M51.3312 0H57.2709C57.4592 0.783153 57.3861 3.14022 57.3842 4.08648L57.3777 11.2517L57.3827 18.4955C57.3868 19.7779 57.4601 21.3831 57.3552 22.6198C57.9631 22.5841 58.5606 22.5765 59.1691 22.58C61.7721 22.5949 64.3763 22.5539 66.9783 22.6255C67.2008 24.6104 67.064 26.1197 67.062 28.0997C66.0799 28.4792 61.4951 28.0556 60.2222 28.2205C60.1735 28.2268 59.0949 28.2248 59.0432 28.2195C58.1802 28.1313 51.5557 28.4047 51.211 28.0394C51.2849 25.9893 51.2291 23.3799 51.2313 21.2857L51.2147 6.88971L51.2095 2.92644C51.2082 2.21804 51.1643 0.631607 51.3312 0Z" fill="#F2F2F2"/>
<path d="M0 39.409L12.8458 39.4093L16.7642 39.4079C17.5759 39.406 18.5438 39.3749 19.3333 39.4451C19.3627 40.1389 19.3515 40.8066 19.3758 41.4808C13.7707 41.6123 8.10785 41.4253 2.49689 41.4925C1.67086 41.5023 0.826652 41.4982 0 41.4877V39.409Z" fill="#F2F2F2"/>
<path d="M60.232 51.2466C61.4487 51.2224 62.6657 51.2212 63.8823 51.2431C64.3531 51.2481 65.715 51.1762 66.0212 51.4631L65.8419 51.5085C65.8073 51.93 65.7628 52.5332 65.6947 52.9436C64.8104 52.953 62.7621 53.0111 61.9576 52.9012L61.9538 54.9323C63.0425 54.8816 64.2847 54.9286 65.3853 54.9471C65.3818 55.4247 65.3915 55.9791 65.3459 56.4479C64.6059 56.4496 62.6965 56.4588 62.0473 56.3323C61.8698 56.6059 61.9485 57.9958 61.9563 58.3933C63.3299 58.3014 64.7366 58.3743 66.0788 58.255C66.1135 58.6004 66.2509 59.7289 66.048 59.7891C65.3487 59.9973 60.9294 59.679 60.4738 60.0003H60.3869C60.0898 59.3893 60.2863 52.5697 60.232 51.2466Z" fill="#F2F2F2"/>
<path d="M113.076 51.7181C113.583 51.3793 114.893 50.7604 115.092 51.7149C113.979 54.4028 113.098 57.2955 111.961 59.9536C111.432 59.9102 111.063 59.8322 110.564 60.0001H110.449C110.385 59.9699 110.306 59.9329 110.213 59.8894C109.781 59.2209 108.908 56.9147 108.687 56.1889C108.397 55.2389 107.471 52.9405 107.363 52.2241C107.155 52.0641 107.027 51.9978 106.968 51.7489C107.088 50.9237 108.602 51.4372 109.092 51.6897C109.544 53.5489 110.478 55.6395 111.064 57.6218C111.403 56.4944 111.746 55.5025 112.122 54.3934C112.43 53.4856 112.648 52.6088 113.076 51.7181Z" fill="#F2F2F2"/>
<path d="M47.8577 51.2841C48.1945 51.2733 49.3683 51.1936 49.5887 51.3477C49.7376 51.8223 49.7008 52.8079 49.7007 53.3333L49.6976 56.6623C49.6984 57.1488 49.6776 58.0018 49.7264 58.4565C50.2463 58.3006 52.969 58.2331 53.4023 58.3477C53.8331 58.725 53.6783 59.591 53.3849 60.0002H48.0934C47.6651 59.3902 47.8758 56.5896 47.8806 55.7134C47.8881 54.33 47.7465 52.6417 47.8577 51.2841Z" fill="#F2F2F2"/>
<path d="M66.0211 51.4629C66.2828 51.7524 66.2952 52.6377 66.0165 52.8884L65.6946 52.9433C65.7626 52.5329 65.8071 51.9297 65.8418 51.5082L66.0211 51.4629Z" fill="#F2F2F2"/>
</g>
<defs>
<clipPath id="clip0_17450_402">
<rect width="134" height="60" fill="white"/>
</clipPath>
</defs>
</svg>
