<svg width="79" height="70" viewBox="0 0 79 70" fill="none" xmlns="http://www.w3.org/2000/svg">
<g clip-path="url(#clip0_17450_433)">
<path d="M39.9225 47.4824C40.0804 47.6198 40.268 47.7914 40.4307 47.9171C41.4086 47.9579 42.1246 47.7354 43.0664 47.7058C46.1064 47.6103 48.0225 49.6262 47.8685 52.6729C47.6774 56.4556 43.8165 59.2492 40.2478 59.3612C38.9372 61.6918 37.5271 63.4614 35.0828 64.6967C29.6263 67.4545 23.6713 65.8105 20.1631 60.8392C20.4992 60.6328 20.6105 60.612 20.9893 60.5172C21.4013 60.7094 21.8154 60.8967 22.2318 61.079C26.0179 62.697 30.9837 61.5652 34.3027 59.358C37.799 57.0329 41.143 52.3968 39.3648 48.0283C39.6071 47.8264 39.7113 47.7189 39.9225 47.4824ZM44.1859 50.2368C43.5292 50.124 43.4076 50.1488 42.7568 50.2095C40.9464 51.1968 41.4111 52.175 41.471 53.9292C41.4904 54.4976 41.2304 56.0339 41.3768 56.4578C41.7958 56.7876 42.3098 56.4234 42.731 56.2496C44.756 55.4138 46.9519 52.2557 44.6371 50.5001C44.5169 50.4089 44.3314 50.2989 44.1859 50.2368Z" fill="#F2F2F2"/>
<path d="M42.7568 50.2092C42.9602 49.7513 43.8396 49.9472 44.1991 50.1546L44.186 50.2366C43.5293 50.1238 43.4076 50.1486 42.7568 50.2092Z" fill="#F2F2F2"/>
<path d="M25.4857 5.75609L25.7532 5.74826C27.2831 5.70794 28.4411 5.80818 29.6009 6.91783C29.6022 6.55156 29.5676 6.19515 29.5381 5.83044C30.6343 5.78209 31.7528 5.82395 32.8592 5.79179C32.8347 9.8054 32.917 13.9688 32.8313 17.9641C31.8379 18.0025 30.5287 17.8659 29.5764 17.9815C29.575 17.7161 29.6474 17.3219 29.539 17.1093C29.3339 17.0866 29.3534 17.1303 29.1441 17.2804C27.4953 18.4851 24.697 18.2967 23.0509 17.1465C21.7541 16.2402 20.7557 14.8399 20.4639 13.2583C20.1204 11.4747 20.5087 9.62712 21.5402 8.13675C22.4723 6.7841 23.9022 6.04283 25.4857 5.75609ZM26.9777 15.0382C28.6726 14.8198 29.869 13.2562 29.6468 11.5498C29.4245 9.84334 27.8682 8.64343 26.1748 8.8727C24.489 9.10102 23.3042 10.6599 23.5254 12.3586C23.7467 14.0572 25.2905 15.2556 26.9777 15.0382Z" fill="#F2F2F2"/>
<path d="M60.1535 22.3838C61.484 22.4208 62.6396 22.7376 63.5391 23.7602C63.5158 23.4064 63.4443 22.944 63.5779 22.6317C64.3319 22.4567 65.6522 22.6418 66.6222 22.4515C66.5842 22.9802 66.5873 23.5872 66.5974 24.1198C66.664 27.6494 66.5314 31.2212 66.6127 34.7464C65.819 34.6469 64.3553 34.6686 63.5241 34.6692C63.4989 34.3467 63.4914 33.9822 63.477 33.6556C63.0851 34.0158 62.9175 34.1357 62.4684 34.423C60.6807 35.3148 58.1506 34.8868 56.609 33.6521C55.3235 32.6182 54.4991 31.1118 54.3176 29.4649C54.0332 26.7878 55.1863 24.0014 57.7389 22.894C58.5533 22.5407 59.2855 22.4778 60.1535 22.3838ZM61.1188 31.6556C62.7729 31.3043 63.8312 29.6691 63.4827 28.0029C63.1341 26.3369 61.5107 25.2707 59.8565 25.6216C58.2019 25.9725 57.1432 27.608 57.4918 29.2744C57.8404 30.9408 59.4644 32.007 61.1188 31.6556Z" fill="#F2F2F2"/>
<path d="M46.1054 5.76307C47.5207 5.67173 48.4658 6.06509 49.6462 6.75916C49.8136 6.63807 49.6912 6.47455 49.7885 6.13133C50.1073 5.89979 52.3066 6.0243 53.0051 5.95856C52.8876 6.95053 52.9316 9.59317 52.9449 10.7522C52.9719 13.0956 52.8716 15.752 52.9754 18.0649C52.2268 17.961 50.6415 17.99 49.8208 17.9848C49.7959 17.7462 49.7839 17.4087 49.6716 17.2104C49.4738 17.1884 49.0687 17.5235 48.8373 17.6692C46.8694 18.467 45.056 18.3569 43.2412 17.1647C40.3437 15.2614 39.8227 11.1177 41.6875 8.30685C42.7549 6.69786 44.286 6.11163 46.1054 5.76307ZM47.4815 15.0519C49.1285 14.682 50.1732 13.0459 49.8242 11.3831C49.4753 9.72025 47.8627 8.64995 46.208 8.98299C45.1212 9.20174 44.2349 9.99184 43.8873 11.0518C43.5397 12.1118 43.7845 13.2781 44.5282 14.1058C45.2719 14.9335 46.3998 15.2948 47.4815 15.0519Z" fill="#F2F2F2"/>
<path d="M17.8765 22.2471C20.1119 22.3379 21.5391 22.5119 23.1138 24.3489C24.5463 26.0202 24.6706 27.7246 24.5071 29.8551C24.1055 29.873 23.6084 29.873 23.2059 29.8548C20.7108 29.7418 17.8913 30.0452 15.4212 29.8031C15.8845 31.0733 16.9159 31.9399 18.2817 32.0579C19.4477 32.1586 20.2804 31.6123 21.1178 30.8843C21.504 31.0635 21.9982 31.3969 22.3696 31.6328C22.7387 31.8194 23.2429 32.1571 23.606 32.3867C21.9163 35.5052 16.4387 35.6365 13.994 33.2529C10.1092 29.4653 12.3323 22.4037 17.8765 22.2471ZM15.3669 27.2365C16.6837 27.1244 17.4873 27.2156 18.7448 27.1952C19.6116 27.1722 20.4244 27.1553 21.2915 27.1702C20.5815 25.6296 19.6158 24.9564 17.8956 25.0447C16.6209 25.4292 16.0969 25.8635 15.4622 27.048C15.4288 27.11 15.397 27.1728 15.3669 27.2365Z" fill="#F2F2F2"/>
<path d="M35.3882 45.8957C34.4812 45.973 33.4876 46.4862 32.7369 46.9185C29.1396 48.9984 28.0081 52.9785 25.7754 56.195C24.8508 57.527 22.0579 58.9362 20.4448 58.3404C18.2218 57.5191 18.4932 54.08 19.1871 52.2294C20.2714 49.3382 22.9819 46.9094 25.753 45.6622C28.1144 44.543 32.1171 44.1878 34.5815 45.1434C34.8917 45.2834 35.5401 45.5431 35.691 45.8322L35.6075 45.9085L35.3882 45.8957Z" fill="#F2F2F2"/>
<path d="M34.5815 45.1436C34.8917 45.2836 35.5401 45.5432 35.691 45.8324L35.6076 45.9087L35.3882 45.8959C35.1073 45.8682 34.8501 45.9153 34.6634 45.729C34.5626 45.4877 34.577 45.4037 34.5815 45.1436Z" fill="#F2F2F2"/>
<path d="M36.2562 46.9941C36.3763 46.9991 36.4962 47.008 36.6157 47.0211C38.7025 47.2538 38.9855 49.6265 38.7796 51.307C38.4708 53.8281 36.6833 56.1695 34.7693 57.694C31.7962 60.0619 28.3673 61.0816 24.6201 60.6223C23.5118 60.4704 22.7474 60.0889 21.6953 59.7171C22.6255 59.5734 23.6059 59.1758 24.4503 58.765C28.1312 56.9743 28.7503 52.5503 31.3846 49.6853C32.8117 48.1333 34.0689 47.1127 36.2562 46.9941Z" fill="#F2F2F2"/>
<path d="M76.3483 44.208L76.3822 44.2166C76.4928 44.3695 76.484 44.4116 76.4867 44.6104C76.5641 50.7296 76.4236 56.8682 76.4935 62.9854C75.7028 62.8327 72.0128 62.8845 71.0578 62.9221L70.9479 62.9226C70.7809 62.6533 70.859 59.7745 70.8576 59.2435L70.8603 44.2218C72.1254 44.2764 75.1388 44.2806 76.3483 44.208Z" fill="#F2F2F2"/>
<path d="M60.3052 5.83403C62.6726 5.61197 64.8594 7.51915 65.1779 9.83818C65.3832 11.3333 65.3724 12.5244 65.3643 14.0217C65.3526 15.4053 65.35 16.789 65.3562 18.1726C64.6923 18.0891 62.8233 18.0933 62.1607 18.1802C62.1639 16.7819 62.3814 11.3934 61.9108 10.292C61.5955 9.5538 60.8598 9.26867 60.173 8.98908C59.7719 9.06906 59.525 9.14672 59.1402 9.27127C57.4315 10.2148 57.8205 12.0783 57.8246 13.7889L57.8273 18.173C57.2978 18.0596 55.1174 18.0922 54.5543 18.1682L54.5672 10.2632C54.5684 9.21576 54.6271 6.95478 54.5105 6.00045C55.1856 6.03249 57.2721 5.94101 57.769 6.0655C57.883 6.30772 57.8278 6.45656 57.809 6.74895C57.952 6.84909 58.4135 6.37416 58.6753 6.25109C59.1834 6.01225 59.7648 5.91444 60.3052 5.83403Z" fill="#F2F2F2"/>
<path d="M47.0334 19.4727C47.6436 19.6062 49.5217 19.5258 50.2235 19.4991C50.2207 20.5294 50.2286 21.5598 50.2474 22.59C50.812 22.5061 52.2644 22.5215 52.9396 22.4922C52.9444 23.5191 52.944 24.5306 52.9913 25.5566C52.1495 25.4683 51.1615 25.557 50.2716 25.4912C50.2898 26.9555 50.238 28.4807 50.229 29.9485C50.2159 32.0783 51.1915 31.9709 52.9422 31.7443C53.0542 32.3646 53.2033 33.2436 53.2236 33.855L53.2458 34.5994C51.613 35.0838 49.4014 35.0323 48.1308 33.7448C46.7822 32.3782 46.9485 30.3039 46.9504 28.531L46.9537 25.4233C46.5817 25.508 45.7417 25.546 45.3267 25.5752C45.3606 24.5342 45.3501 23.4922 45.2954 22.452C45.9345 22.5474 46.3312 22.5454 46.983 22.5459C46.9741 22.0472 46.9122 19.8501 47.0334 19.4727Z" fill="#F2F2F2"/>
<path d="M29.7392 24.2567C29.8004 24.2721 29.7983 24.2977 29.8565 24.368C29.9913 26.6076 29.8998 28.997 29.8908 31.2089C29.8793 34.0538 30.4203 37.2477 27.875 39.1729C26.3784 40.3049 23.6781 40.2683 21.9332 39.9883L21.8136 39.9454C21.5128 39.5374 22.6941 37.3736 22.9624 36.894C23.0589 36.7217 24.2043 36.9168 24.4978 36.9383C27.2513 37.1396 26.6322 33.4484 26.6276 31.5672C26.6154 29.1294 26.6179 26.6916 26.6349 24.2539C27.5306 24.3053 28.8396 24.2892 29.7392 24.2567Z" fill="#F2F2F2"/>
<path d="M40.2315 22.5257C41.0975 22.5678 42.7296 22.5731 43.5832 22.4902C43.594 23.9987 43.5973 25.5072 43.5931 27.0157C43.5924 30.4115 43.5907 32.2102 41.0469 34.8301C40.6238 35.2658 39.2569 36.5075 38.7895 36.8136L38.751 36.606C39.1747 35.7578 39.0618 33.3782 38.3331 32.7858C38.2724 32.3982 38.2842 32.0593 38.2854 31.6688C39.0683 31.3121 39.6327 30.6967 39.9448 29.8856C40.4079 28.6818 40.2636 24.0557 40.2315 22.5257Z" fill="#F2F2F2"/>
<path d="M32.0245 22.4531C32.8432 22.6145 34.4649 22.5626 35.3163 22.4771C35.2282 24.5185 35.3015 26.6688 35.3039 28.7194C35.3062 30.6264 36.0506 31.8577 38.1137 31.7579C38.059 32.2676 37.4765 33.0954 37.1229 33.4737C36.2659 34.324 35.8635 34.9558 34.6051 34.2863C31.8088 32.7985 31.9486 29.6699 31.9874 26.9285C32.0085 25.4371 32.0516 23.9365 32.0245 22.4531Z" fill="#F2F2F2"/>
<path d="M73.4536 36.3203C75.1347 36.2471 76.5627 37.5477 76.6584 39.2396C76.7541 40.9316 75.4829 42.3873 73.8045 42.5072C72.6982 42.5863 71.6347 42.0593 71.0225 41.128C70.4097 40.1966 70.3418 39.0051 70.8454 38.0096C71.349 37.014 72.346 36.3686 73.4536 36.3203Z" fill="#F2F2F2"/>
<path d="M38.3329 32.7861C39.0616 33.3785 39.1745 35.7581 38.7508 36.6063L38.7893 36.8139C36.1879 38.7483 33.9195 40.0367 33.888 43.5842C33.1457 42.0584 32.5535 41.01 33.0422 39.2626C33.8156 36.4972 37.6668 35.5541 38.3329 32.7861Z" fill="white"/>
<path d="M41.8777 36.1104L42.0334 36.2281C43.804 42.0424 37.4466 39.9796 36.2703 44.678L36.1794 44.6852C36.0962 44.3913 36.0338 43.631 36.0184 43.3159C35.853 39.9213 39.0174 39.8847 40.8328 38.0318C41.3313 37.523 41.6444 36.781 41.8777 36.1104Z" fill="white"/>
<path d="M28.0414 19.4359C29.0766 19.2968 30.028 20.0289 30.1668 21.0715C30.3057 22.1141 29.5797 23.0729 28.5448 23.2137C28.0331 23.2833 27.5153 23.1393 27.1116 22.815C26.7079 22.4906 26.4533 22.0142 26.4069 21.4962C26.3159 20.4793 27.0366 19.5708 28.0414 19.4359Z" fill="#F2F2F2"/>
<path d="M38.2674 46C38.9131 46.5049 39.3588 46.8817 39.9225 47.482C39.7113 47.7185 39.6071 47.8259 39.3649 48.0278C39.1124 47.3841 38.7234 46.8038 38.2249 46.3274L38.2674 46Z" fill="#F2F2F2"/>
<path d="M20.1631 60.8383C19.9769 60.5538 19.2108 59.4553 19.2171 59.2178C19.4396 59.295 20.4736 60.211 20.9894 60.5163C20.6105 60.6111 20.4993 60.632 20.1631 60.8383Z" fill="#F2F2F2"/>
<path d="M38.2249 46.3277C38.0724 46.1779 37.9719 46.1061 37.9231 45.8936C38.0784 45.8574 38.0951 45.9078 38.2675 46.0003L38.2249 46.3277Z" fill="#F2F2F2"/>
<path d="M54.61 45.7244L54.6577 45.7026C55.2409 45.4325 55.7379 45.0351 56.3463 44.7971C58.2878 44.0375 60.9186 44.0578 62.858 44.8412C69.9802 47.7185 70.1451 59.0353 63.1741 62.2072C60.4386 63.4519 56.761 63.2732 54.56 61.211C54.5908 63.9703 54.6469 67.2645 54.5571 70.0003H49.4192C49.3505 64.1657 49.3956 58.2429 49.3993 52.4042L49.3972 47.1045C49.3966 46.3237 49.4352 45.0971 49.3819 44.3542C50.7548 44.4309 53.178 44.4629 54.5554 44.3939L54.61 45.7244ZM59.4858 58.2331C62.0182 57.8452 63.7672 55.4744 63.4052 52.9203C63.0433 50.3662 60.7054 48.583 58.1664 48.9243C55.5945 49.2701 53.7961 51.662 54.1628 54.2493C54.5295 56.8364 56.9206 58.626 59.4858 58.2331Z" fill="#F2F2F2"/>
<path d="M0 36.9276C1.40843 36.6448 4.38008 37.0205 5.89929 36.7617L5.902 46.2538C5.90032 48.1511 5.87094 50.1839 5.94106 52.0744C6.96999 50.8364 7.81781 49.9358 8.91607 48.774C10.1622 47.4557 11.7181 45.4953 13.1519 44.4141C15.2123 44.3949 17.484 44.4765 19.5053 44.3492C18.5655 45.2106 17.8233 46.1634 16.947 47.0672C15.838 48.2109 14.7164 49.3336 13.6555 50.5259C13.2614 50.9688 12.6236 51.5987 12.3268 52.0843C14.9208 55.6208 17.2386 59.3189 19.678 62.9408C17.6475 62.7947 15.2323 62.9572 13.1468 62.879C12.2812 61.7307 11.3358 60.137 10.532 58.9085C9.98094 58.0664 8.92469 56.5028 8.52929 55.6511C7.83729 56.4498 6.44183 57.572 5.92847 58.2314C5.9032 59.0977 5.85236 62.2276 5.96627 62.9728C4.64451 62.8276 3.162 62.9267 1.82436 62.9001C1.31684 62.8899 0.477967 62.9293 0 62.8349V36.9276Z" fill="#F2F2F2"/>
<path d="M76.0633 17.0214C73.9607 18.5518 71.5201 18.6892 69.3625 17.1595C68.018 16.2195 67.1084 14.7714 66.8409 13.145C65.9572 7.80922 71.5954 3.72231 76.0219 6.99123C76.0205 6.67251 76.0219 6.35379 76.0246 6.03509C76.9944 6.00526 78.0247 6.02042 79 6.01978V19.2655C78.947 19.3759 78.8595 19.5981 78.8208 19.7183C77.5184 23.8171 72.811 24.5839 69.298 23.0544C68.8447 22.8568 67.368 21.9874 67.2208 21.5839C67.2895 21.2239 68.823 19.7063 69.1834 19.3283C70.7186 20.4548 72.7289 21.3963 74.6231 20.1638C75.7015 19.4621 75.8841 18.2171 76.0633 17.0214ZM73.6797 15.0742C75.3371 14.6821 76.3592 13.0037 75.9554 11.3376C75.5509 9.67147 73.8758 8.65687 72.2253 9.07865C70.595 9.49517 69.6035 11.157 70.0025 12.8023C70.4016 14.4477 72.0427 15.4616 73.6797 15.0742Z" fill="#F2F2F2"/>
<path d="M0 5.75255C0.532601 5.74505 2.87924 5.64992 3.18568 5.84124C3.28793 6.19739 3.033 6.21414 3.22439 6.40052C3.66338 6.30513 4.06346 5.96801 4.47908 5.8784C6.41857 5.46021 8.11399 5.78224 9.49887 7.22999C11.6894 5.24699 15.237 5.08865 17.3907 7.29589C18.6188 8.55459 18.7777 10.4576 18.736 12.1107C18.6847 14.0592 18.8025 16.0583 18.7247 18.0038C18.1458 17.9751 16.0026 17.9662 15.4621 18.0499L15.4828 13.5307C15.485 12.4295 15.663 10.4422 14.8606 9.62004C13.6115 8.34008 11.209 9.09477 11.0266 10.9151C10.795 13.2277 10.9928 15.6945 10.8854 18.0309C10.2048 17.9621 8.3455 17.9406 7.68893 18.0323C7.66497 16.4789 7.65438 14.9252 7.6573 13.3715C7.65479 12.2256 7.89593 10.4468 7.04892 9.61662C6.62139 9.19088 6.04007 8.95887 5.43902 8.97425C2.95643 9.01848 3.19823 11.3165 3.18817 13.0508C3.17877 14.6709 3.26468 16.4371 3.14856 18.0437C2.34823 17.8832 0.933069 18.0354 0 17.9336V5.75255Z" fill="#F2F2F2"/>
<path d="M1.92884 30.7174C3.4358 31.9647 3.72689 32.2437 5.8737 32.1325C6.26767 32.1121 6.97989 31.901 7.24567 31.5866C7.33499 31.4819 7.37795 31.3449 7.36465 31.2075C7.27458 30.34 5.87224 30.0451 5.23441 29.9026C3.39633 29.492 0.710423 29.0365 0.441853 26.7214C-0.145243 21.6603 6.46523 21.2861 9.46473 23.4965C9.70838 23.6761 10.0078 23.995 9.88043 24.3445C9.54773 24.9607 8.79832 25.6063 8.3174 26.1071C6.86886 25.1489 5.62853 24.3976 3.83436 25.1514C3.54819 25.7254 3.26204 26.3135 4.09539 26.6151C6.80194 27.5946 10.868 27.4502 10.3334 31.6141C9.76329 36.0548 1.88726 35.5997 0 32.6959V32.599C0.500749 31.9964 1.29141 31.1734 1.92884 30.7174Z" fill="#F2F2F2"/>
<path d="M35.0418 0H38.2675C38.436 4.47405 38.1626 9.08435 38.2895 13.5719C38.3336 15.1313 38.9475 15.0628 40.2394 15.0141C40.1398 16.0599 40.2457 16.9412 40.1819 17.9735C37.9963 18.3955 35.4201 17.8281 35.0987 15.1609C34.9111 13.6032 35.022 11.5594 35.0304 9.96352C35.0477 6.65298 34.9646 3.30579 35.0418 0Z" fill="#F2F2F2"/>
</g>
<defs>
<clipPath id="clip0_17450_433">
<rect width="79" height="70" fill="white"/>
</clipPath>
</defs>
</svg>
