<svg width="86" height="70" viewBox="0 0 86 70" fill="none" xmlns="http://www.w3.org/2000/svg">
<g clip-path="url(#clip0_17450_384)">
<path d="M0.888195 29.6115C2.50317 29.5862 4.11847 29.5904 5.73329 29.6241C5.87751 31.6493 6.5679 34.7136 6.8913 36.7542L7.80069 42.7275C7.97186 43.8038 8.14029 45.0329 8.41292 46.0806C8.51335 45.6355 8.50304 45.1627 8.5571 44.7091C8.66577 43.7962 8.7991 42.8851 8.92054 41.9737C9.1126 40.5331 9.40913 39.1078 9.60868 37.668C9.94279 35.258 10.1879 32.8236 10.5788 30.4228C10.6027 30.2763 10.6532 29.9153 10.7531 29.8217C11.2076 29.3957 14.9819 29.6053 15.8134 29.6128C15.7966 30.8792 15.8428 32.2697 15.8387 33.5614L15.8093 45.4581C15.8122 47.5857 15.9047 50.2443 15.8082 52.3019C15.5024 52.5892 13.0329 52.4568 12.4488 52.4452C12.3765 51.1371 12.4285 49.282 12.4246 47.9374L12.4274 39.2892C12.4235 38.8127 12.4454 36.2292 12.3788 35.9346L12.2823 35.9396C12.2452 35.9898 12.1749 36.0976 12.1698 36.1594C11.9795 38.478 11.5212 40.7582 11.2597 43.0667C11.0953 44.5183 10.7634 45.9299 10.55 47.3664C10.2972 49.069 10.0945 50.7764 9.83577 52.4796L6.61512 52.4581C6.4023 51.6112 6.29843 50.6725 6.1677 49.8026C5.9242 48.1675 5.69002 46.531 5.46518 44.8933C5.12252 42.4682 4.49583 40.0956 4.21144 37.6611C4.17558 37.3541 4.14661 37.0024 4.03141 36.7163C3.80522 36.9862 3.87318 50.7795 3.86545 52.5014C3.03379 52.4702 1.60101 52.43 0.808604 52.4888C0.865953 47.0792 0.756791 41.5962 0.809153 36.1813C0.82035 35.0236 0.678241 30.4879 0.888195 29.6115Z" fill="#F2F2F2"/>
<path d="M13.2546 6.91361C14.3923 6.96803 16.2703 6.96536 17.3952 6.91211C18.4097 11.1318 18.5928 15.6592 19.4273 19.9239C19.5309 20.4535 19.5281 20.9901 19.6362 21.5484C19.9972 20.1937 20.1122 18.3702 20.323 16.9547C20.6189 14.9686 20.8811 12.9804 21.2139 10.9977C21.4381 9.66221 21.5069 8.29427 21.7696 6.96208C23.1922 6.92517 24.6157 6.93713 26.0394 6.92031C26.0747 11.6543 26.0861 16.3883 26.0735 21.1224C26.0749 22.9394 25.9669 25.3918 26.0428 27.1259C25.0936 27.0502 24.1399 27.046 23.19 27.1133C23.0977 23.3991 23.1541 19.436 23.1642 15.7057L23.1572 12.9087C22.7803 13.7563 22.5868 16.3663 22.3611 17.4612C21.8233 20.0698 21.6214 22.88 21.2026 25.5165C21.125 26.0054 21.0307 26.6353 21.045 27.1284C20.1549 27.0423 19.1054 27.0659 18.2015 27.0651C18.1658 26.8118 18.1155 26.5652 18.0706 26.3137C17.3737 22.409 17.0591 18.4522 16.2411 14.5656C16.1886 14.316 16.1459 13.9956 16.1224 13.7422C16.0727 13.2086 16.0541 12.728 15.9479 12.1999C15.6467 13.7022 15.9648 16.3403 15.909 18.0074C15.8387 20.1121 15.8492 22.2756 15.8586 24.385C15.8614 25.0212 15.8323 26.4752 15.9336 27.0136C15.1286 27.0976 14.0373 27.0437 13.1738 27.0857C13.2367 25.4014 13.1932 23.4837 13.1927 21.786L13.1892 12.4308L13.1831 9.02852C13.1831 8.51288 13.1649 7.39049 13.2546 6.91361Z" fill="#F2F2F2"/>
<path d="M60.7677 29.6075C62.0879 29.6476 63.6542 29.6066 64.9977 29.6069C65.2521 30.7105 68.3842 42.7692 68.5837 42.9965C68.7547 42.8207 68.6963 39.1439 68.6977 38.5305L68.7067 29.5996C69.3489 29.673 70.994 29.6321 71.7077 29.6248L71.7256 45.2997L71.7215 49.8348C71.7208 50.6161 71.6768 51.7621 71.775 52.5021C70.9006 52.42 69.5873 52.4683 68.673 52.4804L68.0133 52.4325C67.7034 50.4293 67.0232 48.4719 66.5667 46.5136C66.0187 44.1625 65.4689 41.9729 64.7145 39.6804C64.3078 38.4447 64.0478 37.1127 63.6243 35.8371C63.8308 40.6849 63.5561 45.5829 63.6517 50.439C63.6651 51.1247 63.6341 51.8271 63.7025 52.5091C62.7838 52.4615 61.6145 52.4502 60.703 52.5072C60.7672 47.0838 60.7166 41.5323 60.7106 36.0983L60.6991 31.779C60.7 31.2826 60.6801 30.0372 60.7677 29.6075Z" fill="#F2F2F2"/>
<path d="M22.6184 29.6099C24.0817 29.5655 25.8351 29.6221 27.3283 29.6175C27.6685 31.4951 28.0409 33.2924 28.2956 35.1898C28.7187 38.3414 29.2488 41.5108 29.8253 44.6386C30.2653 47.0254 30.3797 50.1815 31.1315 52.4455C29.879 52.4858 28.6255 52.4762 27.3737 52.4169C27.209 51.0312 27.1154 49.6154 26.9577 48.2715C25.5408 48.1672 24.0464 48.2877 22.632 48.2095C22.5671 48.6305 22.5557 49.0677 22.4896 49.4943C22.3315 50.5132 22.1344 51.4336 22.0912 52.4725C21.0112 52.4299 19.8524 52.4665 18.7307 52.4274C18.8146 51.0712 19.4252 48.6247 19.6606 47.1359L21.2672 37.0514C21.5693 35.0662 21.8749 31.3303 22.6184 29.6099ZM23.0642 45.1756C23.623 45.161 24.1818 45.1494 24.7407 45.1411C25.2425 45.1405 25.9401 45.1195 26.419 45.1891C26.0431 41.7504 25.4756 38.1564 24.99 34.7245C24.9354 34.338 25.0023 33.8184 24.6927 33.6028C24.5953 33.7663 24.1825 37.5068 24.1379 38.0217C23.9315 40.3989 23.2193 42.8287 23.0642 45.1756Z" fill="#F2F2F2"/>
<path d="M49.322 29.6364C50.709 29.56 52.6726 29.6053 54.0829 29.641C54.2099 31.4339 54.6449 33.3469 54.8633 35.1436C55.0104 36.353 55.3333 37.5779 55.5245 38.7947L56.8987 47.4421C57.1355 49.0299 57.3318 50.9573 57.6178 52.4876C56.7324 52.4814 54.9756 52.4013 54.1731 52.4973C54.1595 51.8303 53.7608 48.9294 53.5169 48.3522C53.0698 48.0766 50.0554 48.3046 49.1827 48.1793C49.2194 49.342 48.8711 51.3193 48.667 52.515C47.8262 52.4562 46.4236 52.4204 45.6108 52.5136C45.6117 51.301 45.8413 50.2889 45.9846 49.0971C46.2577 46.8249 46.6965 44.6203 47.0651 42.3726L48.4632 34.0395C48.6691 32.7448 48.814 31.4286 49.0289 30.135C49.0777 29.8412 49.1085 29.7809 49.322 29.6364ZM49.8638 45.1638C50.3553 45.1429 50.8034 45.1271 51.2952 45.1323C51.8801 45.1348 52.5487 45.1215 53.1268 45.146C52.8379 43.9358 52.8166 43.1151 52.5719 41.4804C52.2417 39.2748 51.7034 36.1132 51.6352 33.8039C51.6352 33.8039 51.5453 33.6855 51.5381 33.6761C51.1844 34.7571 51.0182 36.2348 50.8777 37.3877C50.5719 39.8972 50.0193 42.6593 49.8638 45.1638Z" fill="#F2F2F2"/>
<path d="M71.6739 6.93484C72.5387 6.93737 73.3259 6.96684 74.1949 6.91406L74.2024 20.0017C74.201 22.2764 74.1358 24.8685 74.2162 27.1237C73.5588 27.0427 72.5855 27.0673 71.9013 27.0652C71.6891 27.0598 71.3964 27.1015 71.178 27.1264C71.0956 26.3533 70.6807 25.4853 70.5035 24.7088C69.8227 21.7296 69.0438 18.7754 68.3079 15.8091C68.168 15.2452 67.9485 14.6945 67.7314 14.1604C67.622 13.8912 67.6732 13.1893 67.4396 12.9362L67.3608 12.9842C67.2943 13.4628 67.3679 13.9845 67.3761 14.4803C67.3836 15.3672 67.3866 16.2542 67.3849 17.1412C67.3861 20.3902 67.3182 23.8615 67.383 27.0875C66.4779 27.0715 65.5726 27.0719 64.6675 27.0886C64.5697 25.8916 64.6347 23.6455 64.6351 22.3983L64.6412 13.3942C64.6425 12.5102 64.5335 7.47481 64.6863 6.91864C65.1328 6.98208 67.8261 6.94852 68.473 6.95269C68.7539 7.88572 68.8652 8.93853 69.1496 9.85044C70.0886 12.8563 70.623 15.9857 71.6705 18.9541C71.6691 14.9433 71.5077 10.9649 71.6739 6.93484Z" fill="#F2F2F2"/>
<path d="M4.71019 6.938C5.88562 6.91687 7.07119 6.99241 8.23721 6.94627C8.25953 7.88423 8.41154 8.82034 8.57077 9.74661C9.55558 15.4764 10.3234 21.3779 11.3434 27.0851C10.5515 27.0666 8.977 27.0074 8.25005 27.135C8.2561 26.8965 7.89541 23.5784 7.80721 23.3559L7.64173 23.3121C6.46015 23.2682 5.23393 23.2862 4.03885 23.2497C4.09678 24.4433 3.64517 26.1519 3.78928 27.0398C2.84069 27.0757 1.80507 27.0627 0.849609 27.0681C0.879393 26.0498 1.13101 24.8549 1.25279 23.8077C1.64733 20.4153 2.39854 17.0274 2.84142 13.6469C2.95046 12.8145 3.71177 7.41152 3.95501 7.05851C4.15158 6.90006 4.44827 6.93704 4.71019 6.938ZM4.50448 20.5769L5.89014 20.5305C6.3399 20.53 6.84923 20.5179 7.29354 20.5335C6.76489 17.9601 6.5976 15.0216 6.1681 12.3982C6.09128 11.9291 6.10896 10.5673 5.9799 10.2357L5.86256 10.1601C5.71278 10.6345 5.40121 13.9681 5.29726 14.7433C5.04291 16.6398 4.65325 18.6938 4.50448 20.5769Z" fill="#F2F2F2"/>
<path d="M32.3801 6.93658C33.3966 6.92893 34.4131 6.94246 35.429 6.97726C35.5453 7.45762 35.6347 8.31628 35.7065 8.83547L36.183 12.2565C36.392 13.7372 36.6815 15.1958 36.9138 16.6727C37.3142 19.2187 37.5682 21.7983 38.1095 24.3212C38.3133 25.2714 38.2539 26.2515 38.4449 27.128C37.5295 27.0463 36.4303 27.0699 35.4958 27.0681C35.269 26.2413 35.0091 24.221 34.8625 23.3007C34.6454 23.1845 34.582 23.2362 34.2932 23.2518C33.4078 23.2949 32.2156 23.3127 31.3394 23.2261C31.2005 24.4481 31.0402 25.8437 30.846 27.0519C29.9304 27.1219 29.0206 27.017 28.0417 27.1126C28.4017 25.0175 28.6641 22.6977 28.9746 20.5722L30.217 12.5608C30.3835 11.4195 30.5321 10.2491 30.7765 9.12367C30.9416 8.36324 31.0794 7.70658 31.1608 6.93262C31.5639 6.95408 31.9758 6.94191 32.3801 6.93658ZM31.5393 20.5597C31.9798 20.5498 32.4471 20.5312 32.8853 20.5316L34.5301 20.5317C34.3108 19.3514 33.45 11.1736 33.1285 10.9422C33.0759 10.9043 33.0793 10.9087 33.0265 10.8854L32.148 16.9702C32.0125 17.9383 31.8627 19.713 31.5393 20.5597Z" fill="#F2F2F2"/>
<path d="M80.0845 6.70831C81.3195 6.52757 83.2222 6.6592 84.2368 7.4494C86.474 9.19161 85.5838 11.7182 85.884 13.6783C84.9704 13.6713 83.8858 13.64 82.9901 13.6992C83.0251 11.6829 83.521 8.7053 80.296 9.81915C79.989 10.3851 79.8811 11.0176 79.8674 11.658C79.7987 14.8922 79.8447 18.1383 79.8372 21.3727C79.8358 22.1492 79.73 24.0597 80.6525 24.3711C81.3429 24.6024 82.0895 24.301 82.7043 24.0114C82.7861 23.8212 82.9097 23.5069 82.9296 23.3103C83.0045 22.5606 83.1082 19.3275 82.9104 18.7789C82.8245 18.7314 81.7887 18.7673 81.5902 18.7642L81.5908 17.0041C81.5991 16.6035 81.5675 16.3129 81.527 15.9173C82.9612 15.9002 84.4202 15.8598 85.8503 15.9567C85.7864 16.4544 85.8448 17.1322 85.8407 17.6478C85.8249 19.758 85.954 21.8967 85.6964 23.9959C85.5549 25.1489 84.5122 26.6397 83.3837 27.0439C80.2631 27.878 77.1356 27.098 76.9467 23.3789C76.8938 21.0593 76.8251 18.9945 76.9014 16.6448C76.9797 14.2249 76.5744 10.9335 77.4262 8.62662C77.8665 7.43484 78.9999 7.07999 80.0845 6.70831Z" fill="#F2F2F2"/>
<path d="M40.4971 6.92539C40.9297 6.98992 42.6812 6.94856 43.2326 6.94781C45.2143 6.9552 47.1959 6.9459 49.1774 6.91992C49.1697 7.65178 49.2576 9.03195 49.1096 9.66482C48.9185 10.4819 48.4016 11.5984 48.0804 12.3936L46.2024 17.0545L44.7451 20.7906C44.3024 21.9565 43.9566 23.1264 43.2848 24.1813C44.5994 24.061 47.8193 24.112 49.1827 24.1753C49.1966 25.1101 49.2094 26.1717 49.1752 27.103C48.7345 27.0717 48.2812 27.0649 47.8394 27.0721C45.2874 27.1138 42.69 26.9981 40.1423 27.0852C40.2486 24.301 40.0565 24.5572 41.1315 21.9234L42.6049 18.395C43.5404 16.1875 44.3308 13.8708 45.2811 11.6666C45.5479 11.0477 45.7744 10.4051 45.996 9.76832C44.6996 9.83292 41.4917 9.68479 40.4158 9.83777C40.4074 9.40465 40.3235 7.17969 40.4971 6.92539Z" fill="#F2F2F2"/>
<path d="M34.1341 29.6133C35.2117 29.6295 36.2893 29.6345 37.3669 29.6283C37.452 31.8393 37.4209 34.094 37.4201 36.3084L37.4167 49.3044C39.3954 49.2189 41.3942 49.3354 43.3447 49.2364C43.3471 50.3236 43.3418 51.411 43.3289 52.4982C41.228 52.4016 38.9545 52.522 36.8416 52.4742C36.2349 52.4604 34.7208 52.5161 34.2047 52.4193C34.0941 52.2091 34.0756 51.8956 34.0758 51.6577C34.0801 46.4026 34.0728 41.1418 34.0727 35.8872L34.0735 31.754C34.0738 31.3 34.0461 29.9745 34.1341 29.6133Z" fill="#F2F2F2"/>
<path d="M59.9996 7.3908C62.7277 7.28833 63.5816 14.0396 60.4448 14.5216C60.4455 14.5528 60.4461 14.5841 60.4464 14.6153C60.4628 16.8597 60.2905 18.8446 60.1795 21.0704C60.1249 22.9345 60.2681 24.83 60.094 26.6865C60.0157 27.5209 59.4649 27.5991 58.7822 27.5895C58.0438 27.3898 57.9513 27.2068 57.9828 26.4434C58.005 25.9031 58.0168 25.3626 58.0988 24.8244C58.614 21.4462 58.6945 18.0088 59.2285 14.6372C58.4093 13.9622 57.897 13.9329 57.6042 12.7573C57.1311 10.8576 57.9647 7.97685 59.9996 7.3908Z" fill="#F2F2F2"/>
<path d="M55.6417 6.11035C55.7654 6.133 55.963 6.1644 56.0402 6.26469C56.1905 6.45977 56.4972 10.0606 56.5006 10.5633C56.503 10.9245 56.4954 11.3291 56.3566 11.666C56.0825 12.3308 55.0453 12.9662 54.9292 13.5269C54.7072 14.5996 55.2193 17.4311 55.3333 18.6057C55.4913 20.2343 55.6013 21.866 55.7342 23.4962C55.7871 24.1455 55.9638 24.9271 55.8921 25.5672C55.8234 26.1806 55.1685 26.4688 54.7307 26.8096C54.2008 26.2446 53.8729 26.14 53.8544 25.2852C53.8038 22.9388 53.8066 20.5333 53.5938 18.1968C53.5311 16.7027 53.4679 14.9121 53.4394 13.4283C52.946 12.9588 52.7182 12.8011 52.1325 12.4901C52.0162 12.2712 51.6911 11.6693 51.6902 11.4727C51.6856 10.3416 51.54 7.23799 51.8123 6.3237C51.9606 6.24934 51.9846 6.28214 52.169 6.30086C52.8997 6.85757 52.2667 10.004 53.0583 10.5626L53.2083 10.4883C53.6851 9.92828 53.347 7.41047 53.4365 6.60294C53.4784 6.22506 53.937 6.18857 54.1963 6.3114C54.5704 6.83327 54.2847 10.1331 54.87 10.4897C56.0307 10.4032 54.7326 7.09683 55.6417 6.11035Z" fill="#F2F2F2"/>
<path d="M71.7049 57.1635C71.7962 56.2165 72.275 53.7307 73.2937 53.2389C73.8095 52.9894 74.2093 53.6753 74.4621 54.0435C74.096 55.0049 73.7518 56.0115 73.4063 56.9835C74.6379 56.9117 75.7871 56.8268 76.9336 57.3248C76.9748 58.549 76.9336 58.603 75.5879 58.5596C74.7211 58.5316 73.8597 58.509 72.9921 58.5098C72.9509 60.0758 72.0366 62.0641 72.0195 63.7302C72.014 64.2345 71.8244 66.2225 72.0964 66.5587C72.3293 66.5603 73.9387 65.4005 74.1585 65.1335C75.2781 63.7758 76.608 62.3559 77.3972 60.774C77.6472 60.2728 77.615 59.1696 77.9261 58.6211C78.5038 57.6231 79.1042 56.8597 80.1757 56.4701C80.6813 56.588 80.8407 56.7389 81.2425 57.0506C81.2109 57.3584 81.1944 57.682 81.1738 57.9919C80.5618 58.7415 80.1531 58.8408 79.4799 59.4641C79.2347 59.6913 79.3102 60.178 79.3466 60.5056C79.7581 61.1331 80.9739 62.3173 81.5543 62.8593C81.9047 62.6867 82.5332 62.4329 82.8375 62.2386C83.7559 61.6523 85.3996 60.0885 86 59.2257V61.7437C85.4415 62.4181 83.977 63.442 83.194 63.8875C82.8416 64.0879 82.3154 64.2951 81.8971 64.5294C81.8634 64.8833 81.7762 65.4446 81.6656 65.7624C81.1978 67.1079 79.8556 68.1417 78.4386 68.3023C77.4769 68.4115 77.0393 68.2189 76.2096 67.8635C75.0947 66.0389 76.6052 64.9752 78.1219 64.2724C78.5945 64.0534 79.0987 63.7837 79.6276 63.8126L79.7128 63.6786C79.7265 63.52 79.7499 63.2197 79.6187 63.1041C79.4552 62.9603 78.4839 62.1885 78.3163 62.4115C76.7302 64.5205 75.0576 67.1792 72.5037 68.2239C72.106 68.3869 71.5036 68.4347 71.1196 68.2277C69.8372 67.6136 70.5207 65.8352 70.2541 64.9675C69.7431 65.0669 67.4078 68.1913 65.7889 68.3233C64.3128 68.4436 64.7876 68.0997 63.8854 67.5227C63.3877 67.5049 60.2011 70.2989 58.8848 67.5593C58.9199 67.3778 58.9352 67.3346 58.8968 67.1555L58.745 67.1617C58.6557 67.2682 58.4809 67.5675 58.4733 67.5738C58.1258 67.863 57.5641 68.1814 57.1976 68.419C54.9821 69.8566 54.6355 69.8853 52.1134 69.8881C50.8025 69.1491 50.1566 68.1296 50.5963 66.5747C51.0645 64.9191 51.9984 63.2075 53.5444 62.3302C54.7548 61.6433 55.3092 61.3701 56.7354 61.7086C58.7468 63.9364 56.0469 66.2826 53.9495 66.9805C53.5445 67.1153 52.4884 66.9984 52.2904 67.1158C52.1787 67.3822 52.2012 67.7546 52.1978 68.0516C52.4526 68.1441 52.8851 68.3038 53.1543 68.3013C55.394 68.2812 58.3174 65.6295 59.6681 64.0507C60.3915 63.066 60.8631 62.2486 61.7707 61.3604C62.7925 60.3604 65.2248 59.1555 66.4795 60.4193C67.0473 60.9911 67.0582 61.8928 66.6607 62.5413C66.6607 62.5413 66.9437 62.815 66.873 62.9205C66.3246 64.031 65.7132 65.1549 65.3667 66.3451C65.3329 66.4612 65.4186 66.5218 65.4868 66.5879C66.4361 66.8093 70.1614 62.6287 70.4774 61.6462C70.7054 60.9381 71.0001 59.7254 71.2611 58.9385C70.5818 58.9899 69.2849 59.3068 68.6983 59.6372C68.4712 59.4865 68.2157 59.3503 67.9764 59.2167C67.7105 58.4482 67.9417 58.0738 68.7443 57.8147C69.6758 57.5142 70.7357 57.3103 71.7049 57.1635ZM60.7526 67.1251C62.0859 66.9332 63.0615 65.9178 64.0062 65.0438C64.0562 64.6464 64.1079 64.3272 64.1847 63.9424C64.292 63.405 64.9739 62.0379 64.8798 61.5851L64.7733 61.538C62.7501 62.2166 61.8008 63.6932 60.8459 65.4738C60.579 65.9717 60.2827 66.6793 60.7526 67.1251ZM52.7682 65.4334C53.0724 65.4115 53.4077 65.3947 53.7078 65.3568C54.3452 65.1927 55.8779 63.9911 55.7339 63.2688C55.5105 63.11 55.3501 63.1598 55.041 63.1776C54.6894 63.5355 54.3837 63.7384 53.9953 64.0498C53.4771 64.4654 53.164 64.9109 52.7682 65.4334ZM77.7736 66.6993C78.3561 66.6131 79.9752 66.1086 79.9559 65.429L79.8811 65.3497L79.8268 65.3814C79.3199 65.6709 77.9632 66.0299 77.74 66.4056C77.7317 66.5512 77.7262 66.5641 77.7736 66.6993Z" fill="#F2F2F2"/>
<path d="M0 0H86V2.15987C71.3415 2.23989 56.6827 2.20907 42.0248 2.06743L16.3148 2.03587C10.8983 2.03339 5.41052 1.98218 0 2.04003V0Z" fill="#F2F2F2"/>
<path d="M86.0001 48.0404C85.7961 48.4308 85.7438 49.3702 85.5412 49.9041C85.1119 51.0357 84.1894 51.8486 83.1178 52.3472C81.9707 52.8812 79.5741 52.8939 78.4119 52.4393C77.4701 52.0707 76.3601 51.2404 75.9741 50.2862C75.7 49.6099 75.4417 48.6801 75.406 47.9533C75.2988 45.7873 75.3407 43.5443 75.3428 41.3705C75.3442 39.0926 75.2933 36.7727 75.4108 34.5072C75.4506 33.7378 75.7144 32.6017 75.9727 31.8738C76.2653 31.0511 77.3018 30.0922 78.1041 29.7557C79.4587 29.1873 81.8168 29.235 83.1879 29.7521C84.3199 30.1729 85.2355 31.2324 85.5845 32.3725C85.7404 32.8818 85.772 33.4283 86.0001 33.914V37.1923C84.9292 37.1928 83.7546 37.1691 82.6926 37.2026C82.7167 35.6666 82.9839 34.1498 81.88 33.0057C81.8031 32.9253 81.7207 32.8505 81.6334 32.7818C79.3234 32.6352 78.9971 32.9215 78.8913 35.3217C78.7897 37.6319 78.8989 39.9619 78.8584 42.2744C78.8762 43.9337 78.7388 47.0893 79.0823 48.5893C79.5741 49.0493 79.7864 49.2738 80.4087 49.5631C81.1526 49.4871 81.6197 49.4734 82.152 48.8386C82.3993 48.5413 82.5704 48.1886 82.65 47.811C82.8067 47.0863 82.6892 43.9098 82.7222 42.9127C82.1101 42.934 81.5084 42.96 80.895 42.9455C81.0029 42.2518 80.963 40.6598 80.8909 39.9209C81.7385 39.8553 85.1682 39.7937 86.0001 39.9236V48.0404Z" fill="#F2F2F2"/>
<path d="M0 56.4645C5.47529 56.5537 11.1558 56.4564 16.6458 56.457L45.7908 56.4775L57.3859 56.4697C59.2049 56.4584 61.024 56.459 62.843 56.4716C63.6805 56.4743 64.866 56.4412 65.6806 56.4869L65.6807 58.5101C64.0215 58.4578 62.2217 58.4896 60.5527 58.4908L51.8897 58.4933L25.4153 58.4883L8.13147 58.4868L2.81118 58.487C2.05888 58.486 0.718347 58.4426 0 58.5002V56.4645Z" fill="#F2F2F2"/>
</g>
<defs>
<clipPath id="clip0_17450_384">
<rect width="86" height="70" fill="white"/>
</clipPath>
</defs>
</svg>
