<svg width="36" height="36" viewBox="0 0 36 36" fill="none" xmlns="http://www.w3.org/2000/svg">
<path d="M20.25 0H24.705C25.029 1.60875 25.92 3.63825 27.4838 5.652C29.0138 7.62525 31.0433 9 33.75 9V13.5C29.8058 13.5 26.8425 11.6685 24.75 9.38475V24.75C24.75 26.975 24.0902 29.1501 22.854 31.0002C21.6179 32.8502 19.8609 34.2922 17.8052 35.1436C15.7495 35.9951 13.4875 36.2179 11.3052 35.7838C9.12295 35.3498 7.11839 34.2783 5.54505 32.705C3.97171 31.1316 2.90025 29.1271 2.46617 26.9448C2.03209 24.7625 2.25487 22.5005 3.10636 20.4448C3.95785 18.3891 5.39979 16.6321 7.24984 15.396C9.09989 14.1598 11.275 13.5 13.5 13.5V18C12.165 18 10.8599 18.3959 9.74991 19.1376C8.63987 19.8793 7.77471 20.9335 7.26382 22.1669C6.75293 23.4003 6.61925 24.7575 6.8797 26.0669C7.14015 27.3762 7.78303 28.579 8.72703 29.523C9.67104 30.467 10.8738 31.1099 12.1831 31.3703C13.4925 31.6308 14.8497 31.4971 16.0831 30.9862C17.3165 30.4753 18.3707 29.6101 19.1124 28.5001C19.8541 27.3901 20.25 26.085 20.25 24.75V0Z" fill="white"/>
</svg>
